<?xml version="1.0" encoding="UTF-8" standalone="no"?>
<svg
   xmlns:dc="http://purl.org/dc/elements/1.1/"
   xmlns:cc="http://creativecommons.org/ns#"
   xmlns:rdf="http://www.w3.org/1999/02/22-rdf-syntax-ns#"
   xmlns:svg="http://www.w3.org/2000/svg"
   xmlns="http://www.w3.org/2000/svg"
   version="1.0"
   height="744.09448"
   width="1052.3622"
   id="svg2">
  <title
     id="title6301">PARENTAL ADVISORY GEEK CONTENT</title>
  <metadata
     id="metadata7">
    <rdf:RDF>
      <cc:Work
         rdf:about="">
        <dc:format>image/svg+xml</dc:format>
        <dc:type
           rdf:resource="http://purl.org/dc/dcmitype/StillImage" />
        <dc:title>PARENTAL ADVISORY GEEK CONTENT</dc:title>
        <dc:date>2015-02-26</dc:date>
        <cc:license
           rdf:resource="http://creativecommons.org/publicdomain/zero/1.0/" />
        <dc:creator>
          <cc:Agent>
            <dc:title>Urs Roesch</dc:title>
          </cc:Agent>
        </dc:creator>
        <dc:publisher>
          <cc:Agent>
            <dc:title>OpenClipart</dc:title>
          </cc:Agent>
        </dc:publisher>
        <dc:language>en</dc:language>
        <dc:subject>
          <rdf:Bag>
            <rdf:li>parental advisory</rdf:li>
            <rdf:li>geek</rdf:li>
            <rdf:li>content</rdf:li>
            <rdf:li>hoax</rdf:li>
          </rdf:Bag>
        </dc:subject>
        <dc:description>Parental Advisory Geek Content hoax logo. Created for a presentation. Size A4.</dc:description>
      </cc:Work>
      <cc:License
         rdf:about="http://creativecommons.org/publicdomain/zero/1.0/">
        <cc:permits
           rdf:resource="http://creativecommons.org/ns#Reproduction" />
        <cc:permits
           rdf:resource="http://creativecommons.org/ns#Distribution" />
        <cc:permits
           rdf:resource="http://creativecommons.org/ns#DerivativeWorks" />
      </cc:License>
    </rdf:RDF>
  </metadata>
  <defs
     id="defs5" />
  <text
     id="text3045"
     y="600.55182"
     x="60.104076"
     style="font-style:normal;font-variant:normal;font-weight:normal;font-stretch:normal;font-size:40px;line-height:125%;font-family:'Nimbus Sans L';-inkscape-font-specification:'Nimbus Sans L';letter-spacing:0px;word-spacing:0px;fill:#000000;fill-opacity:1;stroke:none"
     xml:space="preserve"><tspan
       y="600.55182"
       x="60.104076"
       id="tspan3047" /></text>
  <g
     id="g6583">
    <rect
       style="opacity:1;fill:#ffffff;fill-opacity:1;stroke:none;stroke-width:2;stroke-linecap:round;stroke-linejoin:round;stroke-miterlimit:4;stroke-dasharray:none;stroke-opacity:1"
       id="rect6515"
       width="1052.3622"
       height="744.09448"
       x="0"
       y="0" />
    <rect
       style="fill:#000000;fill-opacity:1;stroke:none"
       id="rect3057"
       width="1052.3622"
       height="196.95921"
       x="-4.8522763e-13"
       y="-7.1272498e-06" />
    <g
       transform="matrix(0.94284046,0,0,1.0606248,1.8124359e-5,2.2386039e-5)"
       style="font-style:normal;font-variant:normal;font-weight:normal;font-stretch:normal;font-size:159.89463806px;line-height:125%;font-family:'Nimbus Sans L';-inkscape-font-specification:'Nimbus Sans L';letter-spacing:0px;word-spacing:0px;fill:#ffffff;fill-opacity:1;stroke:none"
       id="text3039">
      <path
         d="m 113.70929,83.320123 c -5e-5,3.304553 -0.58633,6.555741 -1.75884,9.753573 -1.06601,3.091351 -3.14464,6.022749 -6.23589,8.794204 -2.55836,2.34517 -5.43646,3.94411 -8.634309,4.79684 -3.197926,0.74622 -6.289219,1.11931 -9.273889,1.11926 -1.172586,5e-5 -2.078655,0.31983 -2.718209,0.95937 -0.533006,0.63962 -0.799496,1.97207 -0.799473,3.99737 l 0,34.85703 c -2.3e-5,1.38575 -0.586303,2.18523 -1.758841,2.39842 -1.065985,0.10659 -3.464402,0.15989 -7.195259,0.15989 -1.812152,0 -3.251202,0 -4.317155,0 -1.065973,-0.10659 -1.918744,-0.26649 -2.558314,-0.47968 -0.532989,-0.21319 -0.906077,-0.53298 -1.119263,-0.95937 -0.106602,-0.53298 -0.159901,-1.22586 -0.159894,-2.07863 l 0,-103.451831 c -7e-6,-2.025223 0.266484,-3.357677 0.799473,-3.997366 0.426378,-0.53287 0.95936,-0.799361 1.598946,-0.799473 0.639569,-0.106484 1.439042,-0.159783 2.39842,-0.159894 l 16.309253,0 c 3.197862,1.11e-4 6.289155,0.426497 9.273889,1.279157 3.091255,0.852881 5.862765,2.291931 8.314525,4.317155 5.22317,4.263959 7.83478,10.446545 7.83483,18.547778 l 0,20.946197 0,0 M 96.440673,65.731713 c -3.6e-5,-1.705456 -0.106632,-3.304401 -0.31979,-4.796839 -0.213228,-1.492259 -0.799507,-2.824713 -1.758841,-3.997366 -0.639611,-0.639485 -1.385785,-1.119168 -2.238525,-1.439052 -0.746205,-0.319694 -1.75887,-0.479588 -3.037998,-0.479683 -0.959395,9.5e-5 -1.865464,0.05339 -2.718209,0.159894 -0.746199,9.5e-5 -1.279181,0.15999 -1.598946,0.479684 -0.319813,0.42648 -0.479707,1.172654 -0.479684,2.238525 l 0,30.379981 c -2.3e-5,0.852833 -2.3e-5,1.599007 0,2.238525 0.106573,0.533041 0.426362,0.906129 0.959368,1.119263 0.532957,0.106654 1.705517,0.159953 3.517682,0.159894 0.852742,5.9e-5 1.812109,-0.159836 2.878103,-0.479684 1.065933,-0.31973 2.0253,-1.012606 2.878104,-2.07863 1.065929,-1.385691 1.652209,-2.718145 1.758841,-3.997366 0.106561,-1.279091 0.159859,-2.664843 0.159895,-4.15726 l 0,-15.349886"
         style="font-weight:bold;font-family:GarageGothic-Bold;-inkscape-font-specification:'GarageGothic-Bold Bold';letter-spacing:81.66133118px;fill:#ffffff"
         id="path3129" />
      <path
         d="m 245.44513,148.55714 c 0.10655,0.42638 -0.10665,0.74617 -0.63958,0.95936 -0.53303,0.2132 -1.2259,0.37309 -2.07863,0.47969 -0.85282,0.10659 -1.81218,0.15989 -2.8781,0.15989 -1.06601,0 -2.13197,0 -3.19789,0 -2.34516,0 -4.2106,0 -5.59632,0 -1.38578,-0.10659 -2.18526,-0.74617 -2.39842,-1.91873 -0.63961,-4.47705 -1.17259,-8.47441 -1.59894,-11.9921 -0.42642,-3.51767 -0.9594,-7.46173 -1.59895,-11.8322 -0.10663,-0.85275 -0.58631,-1.27913 -1.43905,-1.27916 -0.8528,3e-5 -1.91876,3e-5 -3.19789,0 -1.49238,3e-5 -2.66494,3e-5 -3.51768,0 -0.7462,3e-5 -1.17259,0.42641 -1.27916,1.27916 -0.21322,2.23854 -0.42641,4.31717 -0.63958,6.23589 -0.21321,1.91875 -0.42641,3.83748 -0.63958,5.7562 -0.21321,1.81215 -0.4264,3.73089 -0.63958,5.75621 -0.10661,1.91874 -0.26651,4.05067 -0.47968,6.39579 -0.10662,0.85277 -0.95939,1.33245 -2.55832,1.43905 -1.59896,0.10659 -3.67759,0.15989 -6.23589,0.15989 -0.63958,0 -1.43906,0 -2.39842,0 -0.85277,0 -1.70555,-0.0533 -2.55831,-0.15989 -0.74618,-0.1066 -1.43906,-0.26649 -2.07863,-0.47969 -0.53299,-0.21319 -0.79948,-0.47968 -0.79947,-0.79947 1.49234,-10.44644 2.87809,-20.1467 4.15726,-29.10082 1.27915,-8.95406 2.505,-17.69496 3.67757,-26.222724 1.27915,-8.527649 2.50501,-17.055355 3.67758,-25.583142 1.27914,-8.63422 2.5583,-17.748205 3.83747,-27.341984 0.21318,-1.172449 1.17254,-1.865325 2.8781,-2.07863 1.81212,-0.213081 3.62426,-0.319677 5.43642,-0.319789 2.02531,1.12e-4 3.89074,0.160006 5.59631,0.479684 1.81211,0.213304 2.87807,1.012776 3.1979,2.398419 1.49231,10.233356 2.87806,19.66713 4.15726,28.301351 1.27912,8.527787 2.50497,16.948896 3.67757,25.263353 1.27912,8.207972 2.55827,16.682382 3.83748,25.423252 1.27911,8.63433 2.71816,18.1747 4.31715,28.62114 m -21.26599,-38.53461 c -0.21322,-2.98466 -0.42641,-5.64957 -0.63957,-7.99473 -0.10663,-2.451671 -0.26652,-4.850088 -0.47969,-7.195263 -0.10662,-2.45166 -0.26652,-4.903375 -0.47968,-7.355153 -0.10663,-2.558249 -0.26652,-5.43635 -0.47969,-8.63431 -2e-5,-0.426314 -0.10662,-1.225787 -0.31978,-2.39842 -0.21322,-1.279082 -0.58631,-1.91866 -1.11927,-1.918736 -0.21322,7.6e-5 -0.42641,0.213269 -0.63958,0.639579 -0.10662,0.42646 -0.21321,0.906144 -0.31979,1.439052 -2e-5,0.533055 -2e-5,1.066036 0,1.598946 -2e-5,0.533054 -2e-5,0.852843 0,0.959368 -0.21321,3.091364 -0.42641,5.969465 -0.63957,8.63431 -0.10662,2.664971 -0.26652,5.223282 -0.47969,7.674943 -0.21321,2.345174 -0.42641,4.690294 -0.63958,7.035364 -0.10662,2.34517 -0.26651,4.79688 -0.47968,7.35515 -2e-5,0.85281 1.06594,1.2792 3.19789,1.27916 1.06594,4e-5 1.91871,4e-5 2.55832,0 0.74614,4e-5 1.06593,-0.37305 0.95936,-1.11926"
         style="font-weight:bold;font-family:GarageGothic-Bold;-inkscape-font-specification:'GarageGothic-Bold Bold';letter-spacing:81.66133118px;fill:#ffffff"
         id="path3131" />
      <path
         d="m 382.42751,147.59777 c -5e-5,1.27916 -0.53303,2.02533 -1.59894,2.23852 -0.95942,0.2132 -3.35784,0.31979 -7.19526,0.31979 -1.91878,0 -3.46443,0 -4.63695,0 -1.066,0 -1.86547,-0.0533 -2.39842,-0.15989 -0.53302,-0.21319 -0.9061,-0.47969 -1.11926,-0.79948 -0.10663,-0.42638 -0.15993,-1.01266 -0.15989,-1.75884 l 0,-36.77576 c -4e-5,-2.77147 -0.47972,-5.11659 -1.43906,-7.03537 -0.9594,-2.02528 -2.45175,-3.03795 -4.47705,-3.038 -2.77153,5e-5 -4.53037,0.0533 -5.27652,0.1599 -0.6396,0.10664 -0.95939,0.74622 -0.95937,1.91873 l 0,44.45071 c -2e-5,1.49236 -0.5863,2.39842 -1.75884,2.71821 -1.06598,0.2132 -3.571,0.31979 -7.51505,0.31979 -3.3045,0 -5.43642,-0.10659 -6.39578,-0.31979 -0.95938,-0.31979 -1.43906,-1.38575 -1.43905,-3.19789 l 0,-103.451831 c -10e-6,-0.852663 0.0533,-1.598838 0.15989,-2.238525 0.10659,-0.746065 0.26649,-1.332344 0.47969,-1.758841 0.53297,-0.639467 1.06595,-0.959256 1.59894,-0.959367 0.63957,1.11e-4 1.49234,1.11e-4 2.55832,0 l 15.82956,0 c 3.41106,1.11e-4 6.76884,0.533093 10.07337,1.598946 3.30445,0.959477 6.18255,2.61172 8.63431,4.956734 2.45167,2.238628 4.15721,4.903536 5.11663,7.994732 0.95931,2.984794 1.439,6.182683 1.43905,9.593678 l 0,13.591044 c -5e-5,2.345193 -0.21325,4.317225 -0.63958,5.916102 -0.31984,1.599013 -1.01272,3.144659 -2.07863,4.636944 -0.74622,1.066027 -1.599,1.972096 -2.55832,2.718209 -0.85281,0.639639 -1.70558,1.17262 -2.55831,1.598946 -0.74622,0.426445 -1.3858,0.746234 -1.91874,0.959368 -0.53302,0.213251 -0.79951,0.373146 -0.79947,0.479684 -4e-5,0.213251 0.26645,0.426443 0.79947,0.639579 0.63954,0.106653 1.33242,0.319846 2.07864,0.639578 0.85272,0.319846 1.75879,0.799529 2.7182,1.439052 0.95932,0.533037 1.81209,1.279211 2.55832,2.238525 1.06591,1.492401 1.81209,2.984753 2.23852,4.477053 0.42634,1.49239 0.63953,3.35783 0.63958,5.59631 l 0,40.29345 0,0 M 364.8391,65.731713 c -3e-5,-1.705456 -0.10663,-3.304401 -0.31979,-4.796839 -0.21323,-1.492259 -0.8528,-2.824713 -1.91873,-3.997366 -0.53302,-0.639485 -1.1726,-1.119168 -1.91874,-1.439052 -0.7462,-0.319694 -2.02536,-0.479588 -3.83747,-0.479683 -0.7462,9.5e-5 -1.38578,0.05339 -1.91874,0.159894 -0.533,9.5e-5 -0.95939,0.213288 -1.27915,0.639579 -0.31982,0.639672 -0.47971,1.332548 -0.47969,2.07863 l 0,23.824301 c -2e-5,0.746243 -2e-5,1.385821 0,1.918736 0.10658,0.533048 0.37307,0.959433 0.79948,1.279157 0.31976,0.213258 0.69285,0.319854 1.11926,0.319789 0.53295,6.5e-5 1.11923,6.5e-5 1.75884,0 0.74615,6.5e-5 1.65222,-0.159829 2.71821,-0.479684 1.17253,-0.319723 2.18519,-0.959301 3.038,-1.918735 1.06593,-1.172493 1.7055,-2.291754 1.91873,-3.357788 0.21316,-1.065892 0.31976,-2.025259 0.31979,-2.878103 l 0,-10.872836"
         style="font-weight:bold;font-family:GarageGothic-Bold;-inkscape-font-specification:'GarageGothic-Bold Bold';letter-spacing:81.66133118px;fill:#ffffff"
         id="path3133" />
      <path
         d="m 515.1552,142.16135 c -5e-5,1.81215 -0.0533,3.2512 -0.15989,4.31716 -5e-5,1.06596 -0.0534,1.86543 -0.1599,2.39842 -0.10664,0.53298 -0.31983,0.90607 -0.63958,1.11926 -0.21324,0.10659 -0.53302,0.15989 -0.95937,0.15989 l -30.69977,0 c -1.27917,0 -2.55832,0 -3.83747,0 -1.17257,0.1066 -2.02534,-0.10659 -2.55831,-0.63958 -0.63959,-0.53298 -0.95938,-1.33245 -0.95937,-2.39842 -10e-6,-1.06596 -10e-6,-2.07862 0,-3.03799 l 0,-101.053415 c -10e-6,-1.065856 0.0533,-1.758732 0.1599,-2.078631 0.10659,-0.319679 0.42637,-0.799363 0.95936,-1.439051 0.53298,-0.639468 1.06596,-1.012555 1.59895,-1.119263 0.53297,-0.106484 1.22585,-0.159783 2.07863,-0.159894 l 33.09819,0 c 0.95932,1.11e-4 1.4923,0.479795 1.59895,1.439051 0.21314,0.959478 0.31974,2.984808 0.31979,6.075996 -5e-5,3.62438 -0.10665,5.916201 -0.31979,6.87547 -0.10665,0.852868 -0.69293,1.279253 -1.75884,1.279157 l -15.98947,0 c -0.6396,9.6e-5 -1.38578,0.05339 -2.23852,0.159895 -0.7462,0.106692 -1.22589,0.319885 -1.43906,0.639578 -0.4264,0.533077 -0.6929,0.906164 -0.79947,1.119263 -2e-5,0.213287 -2e-5,0.852865 0,1.918735 l 0,21.106093 c -2e-5,0.746245 -2e-5,1.492419 0,2.238525 -2e-5,0.746243 0.31977,1.385821 0.95937,1.918735 0.53296,0.426453 1.06594,0.639645 1.59895,0.639579 0.63955,6.6e-5 1.27913,6.6e-5 1.91873,0 l 7.67494,0 c 0.95934,6.6e-5 1.54561,0.47975 1.75885,1.439051 0.21315,0.852836 0.31975,3.038061 0.31978,6.555681 -3e-5,3.41114 -0.10663,5.543067 -0.31978,6.395785 -0.10664,0.852823 -0.69292,1.279208 -1.75885,1.279157 l -7.19525,0 c -0.8528,5.1e-5 -1.65228,0.05335 -2.39842,0.159895 -0.7462,5.1e-5 -1.27919,0.106647 -1.59895,0.319789 -0.7462,0.533029 -1.11929,1.172609 -1.11926,1.918739 -3e-5,0.74622 -3e-5,1.65229 0,2.71821 l 0,23.8243 c -3e-5,1.06598 -3e-5,2.23854 0,3.51768 0.10657,1.17258 0.37306,1.86545 0.79947,2.07863 0.42636,0.21321 1.11924,0.3731 2.07863,0.47968 0.95934,0.10662 1.86541,0.15991 2.71821,0.1599 l 15.18999,0 c 0.95932,1e-5 1.5456,0.4264 1.75884,1.27915 0.21315,0.74619 0.31974,2.87812 0.31979,6.39579"
         style="font-weight:bold;font-family:GarageGothic-Bold;-inkscape-font-specification:'GarageGothic-Bold Bold';letter-spacing:81.66133118px;fill:#ffffff"
         id="path3135" />
      <path
         d="m 655.27298,145.51914 c -6e-5,1.06597 -0.0533,1.91874 -0.1599,2.55831 -5e-5,0.53299 -0.26654,0.95937 -0.79947,1.27916 -0.42644,0.31979 -1.22591,0.53298 -2.39842,0.63958 -1.06601,0.10659 -2.61166,0.15989 -4.63694,0.15989 -2.13198,0 -3.73092,-0.21319 -4.79684,-0.63958 -0.95941,-0.42638 -1.70559,-1.65224 -2.23853,-3.67757 -1.27919,-4.58364 -2.45175,-8.6876 -3.51768,-12.31189 -0.9594,-3.62426 -1.91877,-7.14194 -2.8781,-10.55305 -0.85281,-3.51765 -1.81217,-7.19522 -2.87811,-11.03273 -0.95939,-3.83743 -2.13195,-8.26117 -3.51768,-13.271251 -0.21322,-0.852719 -0.47971,-1.812086 -0.79947,-2.878104 -0.21322,-1.172505 -0.47971,-2.238468 -0.79947,-3.197893 -0.31982,-0.959309 -0.63961,-1.758781 -0.95937,-2.398419 -0.21322,-0.639518 -0.47971,-0.959307 -0.79948,-0.959368 -0.533,6.1e-5 -0.85279,0.639639 -0.95936,1.918736 -0.10662,1.279215 -0.15992,2.451774 -0.1599,3.517682 l 0,52.605337 c -2e-5,0.63958 -0.10662,1.17256 -0.31979,1.59895 -0.10662,0.31979 -0.42641,0.58628 -0.95937,0.79947 -0.533,0.21319 -1.43907,0.37309 -2.7182,0.47968 -1.17258,0 -2.77153,0 -4.79684,0 -2.02535,0 -3.57099,0 -4.63695,0 -1.06597,-0.10659 -1.86544,-0.26649 -2.39842,-0.47968 -0.42639,-0.21319 -0.69288,-0.47968 -0.79947,-0.79947 -0.1066,-0.31979 -0.1599,-0.79948 -0.1599,-1.43906 l 0,-106.96951 c 0,-1.065853 0.31979,-1.705431 0.95937,-1.918735 0.74617,-0.213081 2.8781,-0.319678 6.39579,-0.319789 3.41107,1.11e-4 5.59629,0.3199 6.55568,0.959367 1.06594,0.533093 1.86541,1.918845 2.39842,4.157261 1.81211,6.609079 3.78414,14.017523 5.9161,22.225355 2.23849,8.101404 4.58361,16.415917 7.03536,24.943563 0.21316,0.85283 0.42635,1.758899 0.63958,2.718209 0.31975,0.959424 0.74614,1.439107 1.27916,1.439052 0.53294,5.5e-5 0.85273,-0.586225 0.95937,-1.758841 0.10655,-1.172503 0.15985,-2.185168 0.15989,-3.037998 l 0,-48.767865 c -4e-5,-0.639469 0.0533,-1.119152 0.1599,-1.439052 0.10655,-0.426275 0.42634,-0.746063 0.95936,-0.959368 0.63954,-0.213081 1.49231,-0.319677 2.55832,-0.319789 1.17252,-0.106484 2.77146,-0.159783 4.79684,-0.159894 2.02528,1.11e-4 3.57093,0.05341 4.63694,0.159894 1.17251,1.12e-4 2.02528,0.106708 2.55832,0.319789 0.53292,0.106708 0.85271,0.373199 0.95936,0.799474 0.10655,0.319899 0.15984,0.799583 0.1599,1.439051 l 0,104.571096 0,0"
         style="font-weight:bold;font-family:GarageGothic-Bold;-inkscape-font-specification:'GarageGothic-Bold Bold';letter-spacing:81.66133118px;fill:#ffffff"
         id="path3137" />
      <path
         d="m 791.90059,45.744883 c -5e-5,1.812242 -0.0533,3.304591 -0.1599,4.47705 -5e-5,1.066063 -0.0533,1.865536 -0.15989,2.39842 -0.10665,0.533079 -0.31984,0.906166 -0.63958,1.119262 -0.21324,0.106693 -0.53303,0.159991 -0.95937,0.159895 l -6.87547,0 c -0.85281,9.6e-5 -1.75888,9.6e-5 -2.71821,0 -0.8528,9.6e-5 -1.49238,0.106693 -1.91873,0.319789 -0.74621,0.533078 -1.1193,1.385848 -1.11926,2.558315 -4e-5,1.172652 -4e-5,2.291914 0,3.357787 l 0,88.421739 c -4e-5,0.74617 -0.63962,1.22586 -1.91874,1.43905 -1.17259,0.10659 -3.62431,0.15989 -7.35515,0.15989 -3.41111,0 -5.64963,-0.0533 -6.71558,-0.15989 -0.95938,-0.1066 -1.43907,-0.58628 -1.43905,-1.43905 l 0,-88.421739 c -2e-5,-1.065873 -2e-5,-2.185135 0,-3.357787 -2e-5,-1.172467 -0.3731,-2.025237 -1.11926,-2.558315 -0.4264,-0.213096 -1.11928,-0.319693 -2.07863,-0.319789 -0.85279,9.6e-5 -1.70556,9.6e-5 -2.55832,0 l -5.9161,0 c -1.17256,9.6e-5 -1.97204,-0.426289 -2.39842,-1.279157 -0.31979,-0.959269 -0.47968,-3.144494 -0.47968,-6.55568 0,-3.410978 0.10659,-5.542905 0.31979,-6.395786 0.31978,-0.959256 0.95936,-1.43894 1.91873,-1.439051 l 42.21219,0 c 0.95932,1.11e-4 1.5456,0.479795 1.75884,1.439051 0.21314,0.959478 0.31974,2.984808 0.31979,6.075996"
         style="font-weight:bold;font-family:GarageGothic-Bold;-inkscape-font-specification:'GarageGothic-Bold Bold';letter-spacing:81.66133118px;fill:#ffffff"
         id="path3139" />
      <path
         d="m 919.51415,148.55714 c 0.10654,0.42638 -0.10665,0.74617 -0.63958,0.95936 -0.53303,0.2132 -1.22591,0.37309 -2.07863,0.47969 -0.85282,0.10659 -1.81219,0.15989 -2.87811,0.15989 -1.066,0 -2.13197,0 -3.19789,0 -2.34516,0 -4.21059,0 -5.59631,0 -1.38579,-0.10659 -2.18526,-0.74617 -2.39842,-1.91873 -0.63961,-4.47705 -1.17259,-8.47441 -1.59895,-11.9921 -0.42641,-3.51767 -0.9594,-7.46173 -1.59894,-11.8322 -0.10663,-0.85275 -0.58631,-1.27913 -1.43905,-1.27916 -0.8528,3e-5 -1.91877,3e-5 -3.1979,0 -1.49237,3e-5 -2.66493,3e-5 -3.51768,0 -0.7462,3e-5 -1.17258,0.42641 -1.27916,1.27916 -0.21321,2.23854 -0.4264,4.31717 -0.63957,6.23589 -0.21322,1.91875 -0.42641,3.83748 -0.63958,5.7562 -0.21322,1.81215 -0.42641,3.73089 -0.63958,5.75621 -0.10662,1.91874 -0.26651,4.05067 -0.47969,6.39579 -0.10661,0.85277 -0.95938,1.33245 -2.55831,1.43905 -1.59896,0.10659 -3.67759,0.15989 -6.23589,0.15989 -0.63959,0 -1.43906,0 -2.39842,0 -0.85278,0 -1.70555,-0.0533 -2.55831,-0.15989 -0.74618,-0.1066 -1.43906,-0.26649 -2.07864,-0.47969 -0.53298,-0.21319 -0.79947,-0.47968 -0.79947,-0.79947 1.49235,-10.44644 2.8781,-20.1467 4.15726,-29.10082 1.27915,-8.95406 2.50501,-17.69496 3.67758,-26.222724 1.27914,-8.527649 2.505,-17.055355 3.67758,-25.583142 1.27914,-8.63422 2.55829,-17.748205 3.83747,-27.341984 0.21317,-1.172449 1.17254,-1.865325 2.8781,-2.07863 1.81212,-0.213081 3.62425,-0.319677 5.43642,-0.319789 2.0253,1.12e-4 3.89074,0.160006 5.59631,0.479684 1.81211,0.213304 2.87807,1.012776 3.19789,2.398419 1.49232,10.233356 2.87807,19.66713 4.15726,28.301351 1.27912,8.527787 2.50498,16.948896 3.67758,25.263353 1.27911,8.207972 2.55827,16.682382 3.83747,25.423252 1.27911,8.63433 2.71816,18.1747 4.31716,28.62114 m -21.26599,-38.53461 c -0.21322,-2.98466 -0.42641,-5.64957 -0.63958,-7.99473 -0.10662,-2.451671 -0.26652,-4.850088 -0.47968,-7.195263 -0.10663,-2.45166 -0.26652,-4.903375 -0.47969,-7.355153 -0.10662,-2.558249 -0.26651,-5.43635 -0.47968,-8.63431 -3e-5,-0.426314 -0.10662,-1.225787 -0.31979,-2.39842 -0.21322,-1.279082 -0.58631,-1.91866 -1.11926,-1.918736 -0.21322,7.6e-5 -0.42641,0.213269 -0.63958,0.639579 -0.10662,0.42646 -0.21322,0.906144 -0.31979,1.439052 -2e-5,0.533055 -2e-5,1.066036 0,1.598946 -2e-5,0.533054 -2e-5,0.852843 0,0.959368 -0.21322,3.091364 -0.42641,5.969465 -0.63958,8.63431 -0.10662,2.664971 -0.26651,5.223282 -0.47968,7.674943 -0.21322,2.345174 -0.42641,4.690294 -0.63958,7.035364 -0.10662,2.34517 -0.26651,4.79688 -0.47968,7.35515 -3e-5,0.85281 1.06594,1.2792 3.19789,1.27916 1.06594,4e-5 1.91871,4e-5 2.55831,0 0.74615,4e-5 1.06594,-0.37305 0.95937,-1.11926"
         style="font-weight:bold;font-family:GarageGothic-Bold;-inkscape-font-specification:'GarageGothic-Bold Bold';letter-spacing:81.66133118px;fill:#ffffff"
         id="path3141" />
      <path
         d="m 1048.9815,142.00146 c -1e-4,3.83747 -0.1066,6.18259 -0.3198,7.03536 -0.2132,0.74618 -0.7995,1.11926 -1.7588,1.11926 l -30.6998,0 c -1.1726,0 -2.2385,0 -3.1979,0 -0.9594,-0.10659 -1.6523,-0.42638 -2.0786,-0.95937 -0.533,-0.53298 -0.7995,-1.33245 -0.7995,-2.39842 0,-1.06596 0,-2.13192 0,-3.19789 l 0,-102.81225 c 0,-1.17245 0.4264,-1.865326 1.2792,-2.078631 0.8527,-0.319677 3.0912,-0.479572 6.7155,-0.479683 4.0507,1.11e-4 6.5557,0.160006 7.5151,0.479683 1.0659,0.213305 1.5989,0.959479 1.5989,2.238525 l 0,87.302476 c 0,1.06598 0,2.18524 0,3.35778 0.1066,1.06599 0.4264,1.81216 0.9594,2.23853 0.4264,0.21321 1.0126,0.3731 1.7588,0.47968 0.8528,0.10662 1.7055,0.15991 2.5583,0.1599 l 14.2307,0 c 1.0659,1e-5 1.7055,0.4264 1.9187,1.27915 0.2132,0.74619 0.3197,2.82482 0.3198,6.2359"
         style="font-weight:bold;font-family:GarageGothic-Bold;-inkscape-font-specification:'GarageGothic-Bold Bold';letter-spacing:81.66133118px;fill:#ffffff"
         id="path3143" />
    </g>
    <g
       transform="matrix(0.94284046,0,0,1.0606248,1.8124359e-5,2.2386039e-5)"
       style="font-style:normal;font-variant:normal;font-weight:normal;font-stretch:normal;font-size:352.2147522px;line-height:125%;font-family:'Nimbus Sans L';-inkscape-font-specification:'Nimbus Sans L';letter-spacing:0px;word-spacing:0px;fill:#000000;fill-opacity:1;stroke:none"
       id="text3049">
      <path
         d="m 150.66368,451.9343 c 0.2347,0.93925 -0.23492,1.64367 -1.40886,2.11329 -1.17416,0.46962 -2.70042,0.82184 -4.57879,1.05665 -1.87858,0.23481 -3.99187,0.35221 -6.33987,0.35221 -2.34819,0 -4.69629,0 -7.04429,0 -5.1659,0 -9.27507,0 -12.32752,0 -3.0526,-0.23481 -4.81367,-1.64367 -5.28322,-4.22658 -1.40893,-9.86199 -2.58298,-18.66735 -3.52215,-26.4161 -0.93931,-7.74869 -2.11335,-16.43664 -3.52214,-26.06389 -0.23488,-1.87842 -1.29152,-2.81766 -3.16994,-2.81772 -1.87854,6e-5 -4.226634,6e-5 -7.044291,0 -3.287392,6e-5 -5.870298,6e-5 -7.748725,0 -1.643717,6e-5 -2.582955,0.9393 -2.817718,2.81772 -0.469666,4.93105 -0.939285,9.50984 -1.408859,13.73637 -0.469665,4.22662 -0.939284,8.45319 -1.408859,12.67973 -0.469663,3.9918 -0.939283,8.21837 -1.408859,12.67973 -0.234852,4.22659 -0.587067,8.92279 -1.056644,14.08859 -0.234852,1.87848 -2.113328,2.93513 -5.635436,3.16994 -3.52218,0.23481 -8.100968,0.35221 -13.736375,0.35221 -1.408881,0 -3.169953,0 -5.283222,0 -1.878494,0 -3.756971,-0.1174 -5.635436,-0.35221 -1.643679,-0.23481 -3.169941,-0.58703 -4.578791,-1.05665 -1.174056,-0.46962 -1.76108,-1.05664 -1.761074,-1.76107 3.287329,-23.01134 6.339854,-44.37901 9.157583,-64.10309 2.817701,-19.72394 5.518011,-38.97832 8.10094,-57.76322 2.817692,-18.78464 5.518003,-37.56941 8.100939,-56.35436 2.817684,-19.01939 5.6354,-39.09561 8.453154,-60.22872 0.46958,-2.58266 2.582866,-4.10892 6.339866,-4.57879 3.991717,-0.46937 7.98348,-0.70418 11.975301,-0.70443 4.461326,2.5e-4 8.570496,0.35246 12.327516,1.05664 3.99169,0.46987 6.33979,2.23094 7.0443,5.28323 3.28725,22.54196 6.33978,43.32261 9.15758,62.34201 2.81763,18.78494 5.51794,37.3349 8.10094,55.64993 2.81762,18.08046 5.63533,36.74782 8.45315,56.00214 2.81762,19.01965 5.98754,40.03511 9.5098,63.04644 m -46.84456,-84.88375 c -0.46969,-6.57458 -0.9393,-12.44482 -1.40886,-17.61074 -0.23487,-5.40051 -0.58709,-10.68373 -1.05664,-15.84966 -0.23488,-5.4005 -0.58709,-10.80112 -1.05665,-16.20188 -0.23487,-5.63529 -0.587085,-11.97515 -1.056643,-19.0196 -6.1e-5,-0.93908 -0.23487,-2.70015 -0.70443,-5.28322 -0.469679,-2.81755 -1.291512,-4.22641 -2.465503,-4.22658 -0.469677,1.7e-4 -0.939296,0.46979 -1.408859,1.40886 -0.234866,0.93941 -0.469675,1.99605 -0.704429,3.16994 -5.6e-5,1.17421 -5.6e-5,2.34825 0,3.52214 -5.6e-5,1.17421 -5.6e-5,1.87864 0,2.11329 -0.469675,6.80964 -0.939294,13.1495 -1.408859,19.0196 -0.234864,5.87038 -0.587078,11.50581 -1.056645,16.90631 -0.469672,5.16593 -0.939291,10.33174 -1.408859,15.49745 -0.234861,5.16591 -0.587075,10.56653 -1.056644,16.20187 -5e-5,1.87857 2.348046,2.81781 7.044295,2.81772 2.348039,9e-5 4.226516,9e-5 5.635436,0 1.6436,9e-5 2.34803,-0.82175 2.11329,-2.4655"
         style="font-weight:bold;font-family:GarageGothic-Bold;-inkscape-font-specification:'GarageGothic-Bold Bold';letter-spacing:18.79813957px;fill:#000000"
         id="path3146" />
      <path
         d="m 291.67483,401.91981 c -1.2e-4,6.57472 -1.05676,13.14939 -3.16993,19.72403 -1.87859,6.33989 -5.87036,12.56234 -11.9753,18.66738 -5.63554,5.87025 -12.2102,9.86202 -19.72403,11.9753 -7.27918,2.11329 -14.20606,3.16993 -20.78067,3.16993 l -36.63033,0 c -2.34813,0 -4.2266,0 -5.63544,0 -1.40888,-0.23481 -2.46552,-1.05664 -3.16993,-2.4655 -0.70445,-0.93924 -1.17407,-2.11329 -1.40886,-3.52215 -2e-5,-1.40885 -2e-5,-3.05252 0,-4.93101 l 0,-224.71301 c -2e-5,-1.87824 -2e-5,-3.52191 0,-4.931 0.23479,-1.64343 0.70441,-2.93488 1.40886,-3.87437 1.17403,-1.1738 2.34808,-1.76082 3.52214,-1.76107 1.40884,-0.23456 3.28732,-0.35197 5.63544,-0.35222 l 35.9259,0 c 7.51385,2.5e-4 14.91035,1.1743 22.18953,3.52215 7.51383,2.11353 13.97109,5.75308 19.37182,10.91866 5.1657,4.69642 8.80525,10.44926 10.91865,17.25852 2.34799,6.8097 3.52203,13.97139 3.52215,21.4851 l 0,139.82926 0,0 M 253.63564,269.48706 c -8e-5,-3.75677 -0.23489,-7.27891 -0.70443,-10.56644 -0.4697,-3.28714 -1.76115,-6.22226 -3.87436,-8.80537 -1.40894,-1.40865 -2.9352,-2.46529 -4.5788,-3.16993 -1.40892,-0.70422 -3.75702,-1.05644 -7.04429,-1.05665 -5.63549,2.1e-4 -8.80542,0.46983 -9.5098,1.40886 -0.70448,0.93945 -1.0567,2.58312 -1.05664,4.93101 l 0,158.49664 c -6e-5,3.757 0.46956,6.10509 1.40885,7.04429 0.46957,0.46966 1.52621,0.70447 3.16994,0.70443 1.64361,4e-5 3.28728,4e-5 4.931,0 2.11323,4e-5 4.34392,-0.35217 6.69208,-1.05664 2.58284,-0.9392 4.81353,-2.70027 6.69208,-5.28322 2.11322,-3.05248 3.28726,-5.9876 3.52215,-8.80537 0.23473,-3.05247 0.35214,-5.87019 0.35222,-8.45316 l 0,-125.38845"
         style="font-weight:bold;font-family:GarageGothic-Bold;-inkscape-font-specification:'GarageGothic-Bold Bold';letter-spacing:18.79813957px;fill:#000000"
         id="path3148" />
      <path
         d="m 431.43122,214.54156 c -3.05264,21.60273 -6.22257,43.0878 -9.5098,64.4553 -3.28744,21.13304 -6.57477,41.79629 -9.86201,61.9898 -3.05262,20.19374 -5.98774,39.56553 -8.80537,58.11543 -2.58299,18.31521 -4.93109,35.3389 -7.0443,51.07114 -0.46969,2.58291 -1.99596,4.10917 -4.57879,4.57879 -2.34817,0.46962 -7.27917,0.70443 -14.79302,0.70443 -8.21839,0 -13.61901,-0.23481 -16.20188,-0.70443 -2.34814,-0.46962 -3.75699,-2.23069 -4.22658,-5.28322 -1.87851,-14.32338 -3.9918,-30.52524 -6.33986,-48.60564 -2.34813,-18.31509 -4.93103,-37.68688 -7.74873,-58.11543 -2.58292,-20.66313 -5.40064,-41.9134 -8.45315,-63.75087 -2.81773,-21.83712 -5.75285,-43.4396 -8.80537,-64.80751 -0.23481,-1.40862 -0.23481,-2.46526 0,-3.16994 0.46962,-0.70418 1.40885,-1.1738 2.81772,-1.40886 1.40885,-0.46937 3.40473,-0.70418 5.98765,-0.70443 2.58289,2.5e-4 6.10504,2.5e-4 10.56644,0 4.69617,2.5e-4 8.33572,0.11766 10.91866,0.35222 2.58287,2.5e-4 4.46135,0.23506 5.63544,0.70443 1.40881,0.46986 2.23065,1.17429 2.4655,2.11329 0.46958,0.70467 0.82179,1.76131 1.05664,3.16993 0.9392,8.92301 1.87844,19.84165 2.81772,32.75597 0.93919,12.67993 1.87843,25.94667 2.81772,39.80027 0.93919,13.61912 1.87843,27.12068 2.81772,40.5047 0.93918,13.14946 1.99583,24.65513 3.16993,34.51704 -6e-5,0.70452 0.11735,1.52636 0.35222,2.4655 0.23475,0.70452 0.58696,1.05674 1.05664,1.05665 1.17399,9e-5 1.76101,-1.17396 1.76107,-3.52215 1.17399,-9.86191 2.34804,-21.60239 3.52215,-35.22147 1.4088,-13.61883 2.70025,-27.35519 3.87436,-41.20913 1.17398,-14.08841 2.34803,-27.35515 3.52215,-39.80027 1.17398,-12.67951 2.23062,-23.12853 3.16993,-31.34711 0.23474,-1.40862 0.46955,-2.46526 0.70443,-3.16993 0.46955,-0.939 1.29138,-1.52602 2.46551,-1.76108 1.17397,-0.46937 2.93504,-0.70418 5.28322,-0.70443 2.58282,-0.23456 5.98756,-0.35196 10.21423,-0.35221 8.68786,2.5e-4 14.20588,0.23506 16.55409,0.70443 2.34799,0.46986 3.28722,1.99613 2.81772,4.57879"
         style="font-weight:bold;font-family:GarageGothic-Bold;-inkscape-font-specification:'GarageGothic-Bold Bold';letter-spacing:18.79813957px;fill:#000000"
         id="path3150" />
      <path
         d="m 507.29915,449.4688 c -5e-5,1.40886 -0.11745,2.46551 -0.35221,3.16993 -0.23486,0.70444 -1.05669,1.29146 -2.4655,1.76108 -1.1741,0.23481 -3.05258,0.46962 -5.63544,0.70443 -2.58295,0 -6.3399,0 -11.27087,0 -4.22661,0 -7.63135,0 -10.21423,0 -2.34812,0 -4.10919,-0.11741 -5.28322,-0.35222 -1.17406,-0.46962 -1.87849,-1.05664 -2.11329,-1.76107 -0.23482,-0.70443 -0.35223,-1.64367 -0.35221,-2.81772 l 0,-235.27945 c -2e-5,-2.58267 0.93922,-4.10893 2.81771,-4.5788 1.87846,-0.70418 6.92687,-1.05639 15.14524,-1.05664 4.69616,2.5e-4 8.33571,0.11765 10.91866,0.35221 2.58286,2.5e-4 4.46134,0.23506 5.63543,0.70443 1.40881,0.23506 2.23064,0.82208 2.46551,1.76108 0.46956,0.70467 0.70437,1.76131 0.70442,3.16993 l 0,234.22281 0,0"
         style="font-weight:bold;font-family:GarageGothic-Bold;-inkscape-font-specification:'GarageGothic-Bold Bold';letter-spacing:18.79813957px;fill:#000000"
         id="path3152" />
      <path
         d="m 650.62175,394.5233 c -1.2e-4,5.40068 -0.46973,11.03611 -1.40886,16.90631 -0.70454,5.87028 -2.1134,10.80128 -4.22658,14.79302 -3.05263,5.40065 -5.98775,9.97943 -8.80537,13.73637 -2.583,3.75697 -5.63553,6.8095 -9.15758,9.15759 -3.28742,2.11329 -7.16178,3.75696 -11.62309,4.931 -4.22665,0.93924 -9.50986,1.40886 -15.84966,1.40886 -7.27916,0 -14.08864,-1.05664 -20.42846,-3.16993 -6.10509,-2.11328 -11.50571,-5.28321 -16.20188,-9.5098 -4.4614,-4.22656 -7.98355,-9.39237 -10.56644,-15.49745 -2.58292,-6.10502 -3.87437,-13.14931 -3.87436,-21.13288 l 0,-19.72403 c -10e-6,-1.6436 1.05663,-2.58284 3.16993,-2.81772 2.34808,-0.46955 7.04428,-0.70435 14.08859,-0.70443 7.04426,8e-5 12.21007,0.11748 15.49745,0.35222 3.5221,0.23488 5.28317,1.05671 5.28322,2.4655 l 0,14.79302 c -5e-5,6.57472 0.82179,11.74054 2.4655,15.49745 1.64362,3.52218 5.16577,5.28325 10.56645,5.28322 4.69613,3e-5 7.86606,-1.40882 9.5098,-4.22658 1.64359,-2.81767 2.70024,-5.75279 3.16993,-8.80537 0.23473,-3.05247 0.35214,-5.87019 0.35221,-8.45315 0.23474,-2.58285 0.35214,-5.16575 0.35222,-7.74872 -8e-5,-5.16575 -1.64374,-10.56637 -4.93101,-16.20188 -3.2874,-5.87016 -7.39657,-11.97521 -12.32752,-18.31517 -4.93105,-6.33976 -10.33167,-13.03183 -16.20187,-20.07624 -5.63547,-7.04417 -10.91869,-14.32327 -15.84967,-21.83732 -4.93102,-7.74857 -9.04019,-15.7321 -12.32751,-23.9506 -3.28735,-8.21817 -4.93102,-16.78872 -4.93101,-25.71168 -10e-6,-2.3479 0.2348,-5.04821 0.70443,-8.10093 0.46961,-3.28714 1.05663,-6.45707 1.76107,-9.5098 0.93923,-3.28713 1.87847,-6.33965 2.81772,-9.15759 1.17404,-2.8175 2.34808,-5.283 3.52215,-7.39651 1.17403,-2.11306 2.8177,-4.46115 4.931,-7.04429 2.34808,-2.58268 5.1658,-5.04818 8.45316,-7.39651 3.2873,-2.34786 7.16166,-4.34374 11.62309,-5.98765 4.69615,-1.64342 10.09677,-2.46526 16.20187,-2.46551 7.51385,2.5e-4 14.32333,1.2917 20.42846,3.87437 6.10497,2.58315 11.38819,6.10529 15.84966,10.56644 4.46129,4.2268 7.86603,9.27521 10.21423,15.14523 2.34799,5.87046 3.52204,11.97551 3.52215,18.31517 l 0,17.25852 c -1.1e-4,1.17423 -1.29156,1.87866 -3.87436,2.11329 -2.58301,1.8e-4 -6.92699,1.8e-4 -13.03195,0 -6.80957,1.8e-4 -11.97538,-0.11722 -15.49745,-0.35221 -3.28741,-0.23463 -4.93107,-0.93906 -4.931,-2.11329 l 0,-16.20188 c -7e-5,-4.9308 -1.40893,-8.80516 -4.22658,-11.62309 -2.58297,-2.8175 -5.40069,-4.22636 -8.45316,-4.22657 -3.28739,2.1e-4 -5.9877,1.17426 -8.10094,3.52214 -2.11333,2.34831 -3.40478,4.93122 -3.87436,7.74873 -0.70447,5.40082 -1.05669,10.09701 -1.05664,14.08859 -5e-5,7.04448 1.64362,13.73655 4.931,20.07624 3.28729,6.10522 7.39646,12.32767 12.32752,18.66738 5.16575,6.34001 10.56637,12.79727 16.20188,19.37181 5.87016,6.33999 11.27078,13.03207 16.20188,20.07624 5.16572,7.0444 9.39229,14.67571 12.67973,22.89396 3.28723,7.98362 4.93089,16.78898 4.93101,26.41611"
         style="font-weight:bold;font-family:GarageGothic-Bold;-inkscape-font-specification:'GarageGothic-Bold Bold';letter-spacing:18.79813957px;fill:#000000"
         id="path3154" />
      <path
         d="m 792.28777,404.73753 c -1.1e-4,14.79305 -4.34409,27.00315 -13.03194,36.63033 -8.45325,9.3924 -21.25037,14.08859 -38.39141,14.08859 -8.2184,0 -15.4975,-1.29145 -21.83732,-3.87436 -6.10509,-2.5829 -11.3883,-6.10505 -15.84966,-10.56644 -4.46141,-4.69618 -7.86615,-10.0968 -10.21423,-16.20188 -2.1133,-6.10502 -3.16994,-12.79709 -3.16993,-20.07624 l 0,-145.4647 c -10e-6,-7.74852 1.29144,-14.6754 3.87436,-20.78067 2.58289,-6.10483 6.10504,-11.38804 10.56644,-15.84966 4.69617,-4.46115 10.09679,-7.86589 16.20188,-10.21423 6.33982,-2.34785 13.1493,-3.5219 20.42846,-3.52215 15.26256,2.5e-4 27.59006,4.57904 36.98255,13.73638 9.62709,8.923 14.44069,21.1331 14.4408,36.63033 l 0,145.4647 0,0 m -38.03919,-138.4204 c -8e-5,-4.93081 -0.93932,-9.627 -2.81772,-14.08859 -1.87855,-4.69599 -5.40069,-7.04409 -10.56644,-7.0443 -5.40068,2.1e-4 -9.04023,2.34831 -10.91866,7.0443 -1.64372,4.46159 -2.46555,9.15778 -2.4655,14.08859 l 0,130.67167 c -5e-5,2.58297 -5e-5,5.16587 0,7.74873 0.23476,2.34814 0.82178,4.57884 1.76107,6.69208 0.93919,1.87852 2.23064,3.52219 3.87436,4.931 1.87843,1.17409 4.46133,1.76112 7.74873,1.76108 3.05246,4e-5 5.40056,-0.58699 7.04429,-1.76108 1.87841,-1.40881 3.28727,-3.05248 4.22658,-4.931 0.93917,-2.11324 1.52619,-4.34394 1.76107,-6.69208 0.23474,-2.58286 0.35214,-5.16576 0.35222,-7.74873 l 0,-130.67167"
         style="font-weight:bold;font-family:GarageGothic-Bold;-inkscape-font-specification:'GarageGothic-Bold Bold';letter-spacing:18.79813957px;fill:#000000"
         id="path3156" />
      <path
         d="m 939.0885,449.82102 c -1.2e-4,2.81772 -1.17416,4.46138 -3.52215,4.931 -2.1134,0.46962 -7.39661,0.70443 -15.84966,0.70443 -4.22667,0 -7.63141,0 -10.21423,0 -2.34818,0 -4.10925,-0.1174 -5.28322,-0.35221 -1.17413,-0.46962 -1.99596,-1.05665 -2.4655,-1.76108 -0.23489,-0.93923 -0.3523,-2.23069 -0.35222,-3.87436 l 0,-81.00939 c -8e-5,-6.10496 -1.05672,-11.27078 -3.16993,-15.49745 -2.11336,-4.46128 -5.4007,-6.69197 -9.86201,-6.69208 -6.10512,1.1e-4 -9.97948,0.11751 -11.62309,0.35221 -1.40891,0.23492 -2.11334,1.64378 -2.11329,4.22658 l 0,97.9157 c -5e-5,3.28734 -1.2915,5.28322 -3.87436,5.98765 -2.34815,0.46962 -7.86617,0.70443 -16.5541,0.70443 -7.27912,0 -11.97532,-0.23481 -14.08859,-0.70443 -2.1133,-0.70443 -3.16994,-3.05252 -3.16993,-7.04429 l 0,-227.88295 c -1e-5,-1.87824 0.11739,-3.52191 0.35222,-4.931 0.23479,-1.64343 0.58701,-2.93488 1.05664,-3.87437 1.17403,-1.40861 2.34808,-2.11304 3.52215,-2.11329 1.40884,2.5e-4 3.28731,2.5e-4 5.63543,0 l 34.86926,0 c 7.51385,2.5e-4 14.91035,1.1743 22.18953,3.52215 7.27902,2.11353 13.61888,5.75308 19.0196,10.91866 5.40052,4.93123 9.15747,10.80147 11.27087,17.61074 2.11318,6.57488 3.16982,13.61917 3.16994,21.13288 l 0,29.93826 c -1.2e-4,5.16597 -0.46974,9.50995 -1.40886,13.03194 -0.70455,3.5223 -2.23081,6.92704 -4.5788,10.21423 -1.64377,2.34824 -3.52225,4.34412 -5.63543,5.98765 -1.87858,1.40899 -3.75706,2.58304 -5.63544,3.52215 -1.64376,0.93937 -3.05262,1.6438 -4.22657,2.11329 -1.17415,0.46974 -1.76117,0.82196 -1.76108,1.05664 -9e-5,0.46975 0.58693,0.93937 1.76108,1.40886 1.40876,0.23494 2.93502,0.70456 4.57879,1.40886 1.87838,0.70455 3.87426,1.7612 5.98765,3.16993 2.11318,1.17417 3.99166,2.81784 5.63543,4.93101 2.34799,3.28745 3.99166,6.57478 4.93101,9.86201 0.93912,3.28744 1.40874,7.39661 1.40886,12.32752 l 0,88.75812 0,0 M 900.34488,269.48706 c -8e-5,-3.75677 -0.23489,-7.27891 -0.70443,-10.56644 -0.4697,-3.28714 -1.87856,-6.22226 -4.22658,-8.80537 -1.17412,-1.40865 -2.58298,-2.46529 -4.22658,-3.16993 -1.64373,-0.70422 -4.46145,-1.05644 -8.45315,-1.05665 -1.64373,2.1e-4 -3.05259,0.11762 -4.22658,0.35222 -1.1741,2.1e-4 -2.11334,0.46983 -2.81772,1.40886 -0.70448,1.40906 -1.05669,2.93533 -1.05664,4.57879 l 0,52.48 c -5e-5,1.64382 -5e-5,3.05267 0,4.22657 0.23476,1.1742 0.82178,2.11344 1.76107,2.81772 0.70438,0.46977 1.52621,0.70458 2.46551,0.70443 1.17399,1.5e-4 2.46544,1.5e-4 3.87436,0 1.64361,1.5e-4 3.63949,-0.35207 5.98765,-1.05664 2.58284,-0.70429 4.81353,-2.11314 6.69208,-4.22658 2.34802,-2.58276 3.75688,-5.04826 4.22658,-7.39651 0.46954,-2.34794 0.70435,-4.46123 0.70443,-6.33986 l 0,-23.95061"
         style="font-weight:bold;font-family:GarageGothic-Bold;-inkscape-font-specification:'GarageGothic-Bold Bold';letter-spacing:18.79813957px;fill:#000000"
         id="path3158" />
      <path
         d="m 1071.5144,214.18935 c -2.1134,10.33186 -4.2267,20.19386 -6.3399,29.58604 -1.8786,9.39259 -3.8745,18.78498 -5.9876,28.17718 -1.8786,9.15775 -3.9919,18.43273 -6.3399,27.82496 -2.1134,9.39254 -4.3441,19.25454 -6.6921,29.58604 -0.9393,3.75708 -1.7611,7.51403 -2.4655,11.27087 -0.4697,3.52226 -0.9393,6.69219 -1.4089,9.5098 -0.4697,1.64377 -0.9393,4.34408 -1.4088,8.10094 -0.4697,3.75705 -0.7045,7.27919 -0.7044,10.56644 l 0,83.82711 c -10e-5,0.70444 -0.822,1.29146 -2.4655,1.76108 -1.6438,0.46962 -3.5223,0.82183 -5.6355,1.05664 -2.1133,0 -4.2266,0 -6.3398,0 -2.1134,0 -3.7571,0 -4.9311,0 -1.4089,0 -3.1699,0 -5.2832,0 -2.1133,0 -4.2266,-0.1174 -6.3398,-0.35221 -1.8786,-0.23481 -3.5222,-0.58703 -4.931,-1.05665 -1.4089,-0.46962 -2.1134,-1.29145 -2.1133,-2.4655 -10e-5,-7.04428 -10e-5,-13.73636 0,-20.07624 -10e-5,-6.57465 -10e-5,-13.14932 0,-19.72403 0.2347,-6.57462 0.3521,-13.2667 0.3522,-20.07624 -1e-4,-6.80941 -1e-4,-14.08851 0,-21.83731 -1e-4,-3.28725 -0.1175,-6.45718 -0.3522,-9.5098 -10e-5,-3.28724 -0.2349,-5.87015 -0.7045,-7.74873 -0.4696,-2.34799 -1.174,-5.40051 -2.11325,-9.15758 -0.93928,-3.99165 -1.87851,-7.98341 -2.81772,-11.9753 -4.69623,-20.66312 -9.15761,-40.15232 -13.38416,-58.46765 -4.22659,-18.54978 -8.57057,-38.15638 -13.03195,-58.81986 -0.23481,-1.17381 0.1174,-1.99564 1.05665,-2.46551 1.17404,-0.70418 2.5829,-1.1738 4.22657,-1.40886 1.64366,-0.46937 3.40473,-0.70418 5.28322,-0.70443 2.11328,-0.23456 3.87435,-0.35196 5.28323,-0.35221 5.4006,2.5e-4 10.21419,0.35246 14.44081,1.05664 4.2265,0.46987 6.5746,1.99613 7.0443,4.5788 2.1132,15.49767 4.1091,30.29067 5.9876,44.37905 2.1133,13.85397 4.1092,27.94254 5.9877,42.26577 -1e-4,0.46978 0.1173,1.17421 0.3522,2.11329 0.4696,0.70458 1.0566,1.0568 1.7611,1.05665 0.7043,1.5e-4 1.174,-0.46947 1.4088,-1.40886 0.2348,-0.93909 0.3522,-1.64352 0.3522,-2.11329 1.174,-7.74856 2.2307,-15.14506 3.17,-22.18953 0.9392,-7.04411 1.761,-13.97099 2.4655,-20.78067 0.9392,-6.80928 1.761,-13.73616 2.4655,-20.78067 0.9392,-7.04407 1.9958,-14.55798 3.1699,-22.54174 0.4696,-2.34786 2.7003,-3.87412 6.6921,-4.5788 3.9917,-0.70418 8.3357,-1.05639 13.0319,-1.05664 4.6962,2.5e-4 8.8053,0.23506 12.3276,0.70443 3.7568,0.46986 5.4005,1.87872 4.931,4.22658"
         style="font-weight:bold;font-family:GarageGothic-Bold;-inkscape-font-specification:'GarageGothic-Bold Bold';letter-spacing:18.79813957px;fill:#000000"
         id="path3160" />
    </g>
    <rect
       y="516.03644"
       x="-4.8522763e-13"
       height="228.05803"
       width="1052.3622"
       id="rect3059"
       style="fill:#000000;fill-opacity:1;stroke:none" />
    <g
       transform="matrix(0.94284046,0,0,1.0606248,1.8124359e-5,2.2386039e-5)"
       style="font-style:normal;font-variant:normal;font-weight:normal;font-stretch:normal;font-size:173.88468933px;line-height:125%;font-family:'Nimbus Sans L';-inkscape-font-specification:'Nimbus Sans L';letter-spacing:-0.43471178px;word-spacing:0px;fill:#ffffff;fill-opacity:1;stroke:none"
       id="text3053">
      <path
         d="m 112.12045,641.73123 c -5e-5,0.4637 -0.058,1.10127 -0.17388,1.91273 -0.11598,0.69554 -0.52171,1.15923 -1.21719,1.39108 -0.57967,0.23184 -1.21725,0.28981 -1.91274,0.17388 -0.57966,-0.11592 -1.15928,-0.17388 -1.73884,-0.17388 -0.46375,0 -0.92744,-0.28981 -1.39108,-0.86942 -0.34782,-0.69554 -0.69559,-1.44904 -1.04331,-2.26051 -0.34782,-0.92738 -0.75355,-1.73884 -1.21719,-2.43438 -0.34782,-0.81146 -0.75355,-1.33311 -1.21719,-1.56496 -0.46374,-0.11592 -0.9854,0.23185 -1.56497,1.0433 -0.57966,0.69555 -1.391117,1.50701 -2.434381,2.43439 -1.04335,0.92739 -2.492387,1.79681 -4.347117,2.60827 -1.738884,0.81146 -4.115305,1.21719 -7.129273,1.21719 -4.057336,0 -7.650949,-0.63757 -10.78085,-1.91273 -3.129942,-1.39107 -5.796171,-3.18788 -7.998696,-5.39042 -2.086627,-2.31846 -3.709549,-4.92672 -4.868771,-7.82481 -1.043315,-3.01399 -1.564968,-6.08595 -1.564963,-9.21589 l 0,-72.85769 c -5e-6,-3.0139 0.521648,-5.96994 1.564963,-8.86812 1.159222,-2.89797 2.782144,-5.50623 4.868771,-7.82481 2.086602,-2.31834 4.69487,-4.17311 7.824811,-5.56431 3.129901,-1.50688 6.781476,-2.26038 10.954735,-2.2605 4.173198,1.2e-4 7.824773,0.75362 10.954736,2.2605 3.245805,1.3912 5.912035,3.24597 7.998695,5.56431 2.20249,2.31858 3.82541,4.92684 4.86877,7.82481 1.04325,2.89818 1.56491,5.85422 1.56496,8.86812 l 0,9.38978 c -5e-5,0.81154 -0.63763,1.39116 -1.91273,1.73884 -1.27521,0.34786 -4.11532,0.52174 -8.52035,0.52166 -3.014042,8e-5 -5.158617,-0.0579 -6.433731,-0.17389 -1.275193,-0.11584 -1.912769,-0.63749 -1.912732,-1.56496 -3.7e-5,-1.27507 -0.058,-2.89799 -0.173884,-4.86877 -3.8e-5,-1.9706 -3.8e-5,-3.41964 0,-4.34712 -3.8e-5,-0.57952 -0.115961,-1.27506 -0.34777,-2.08662 -0.231883,-0.92728 -0.637613,-1.73874 -1.217192,-2.43438 -0.463728,-0.81136 -1.101305,-1.44894 -1.912732,-1.91273 -0.811495,-0.57951 -1.796841,-0.86932 -2.95604,-0.86943 -1.275184,1.1e-4 -2.376452,0.34788 -3.303809,1.04331 -0.811489,0.57972 -1.507027,1.33322 -2.086616,2.2605 -0.463718,0.92749 -0.811487,2.02876 -1.043308,3.30381 -0.115948,1.15933 -0.173909,2.2606 -0.173885,3.30381 l 0,65.55453 c -2.4e-5,1.15926 0.05794,2.31849 0.173885,3.47769 0.115898,1.15926 0.405706,2.26053 0.869423,3.30381 0.463667,0.92741 1.101243,1.68091 1.912732,2.2605 0.927357,0.57964 2.144548,0.86944 3.651578,0.86943 1.391045,10e-6 2.492314,-0.23183 3.303809,-0.69554 0.92735,-0.5796 1.564927,-1.21717 1.912732,-1.91273 0.463656,-0.69552 0.753463,-1.44902 0.869423,-2.26051 0.231809,-0.81143 0.347732,-1.50697 0.34777,-2.08661 l 0,-22.7789 c -3.8e-5,-1.2751 -0.521691,-2.08656 -1.564962,-2.43438 -0.92742,-0.2318 -1.854804,-0.40568 -2.782155,-0.52166 -0.811495,-0.11587 -1.449071,-0.28975 -1.912732,-0.52165 -0.3478,-0.34772 -0.579646,-0.92733 -0.695539,-1.73885 -3e-5,-0.92733 -3e-5,-2.08656 0,-3.47769 -3e-5,-3.24579 0.231816,-4.98463 0.695539,-5.21654 1.159199,-0.8114 3.361736,-1.27509 6.607618,-1.39108 3.36173,-0.23178 6.781458,-0.28974 10.259198,-0.17388 3.47764,0.11598 5.73814,0.46375 6.7815,1.04331 1.04325,0.46375 1.56491,1.33317 1.56496,2.60827 l 0,56.51252 0,0"
         style="font-family:GarageGothic-Bold;-inkscape-font-specification:GarageGothic-Bold;letter-spacing:28.41836166px;fill:#ffffff"
         id="path3163" />
      <path
         d="m 196.77693,636.51469 c -5e-5,1.9707 -0.058,3.53566 -0.17388,4.69489 -5e-5,1.15923 -0.058,2.02865 -0.17389,2.60827 -0.11597,0.57961 -0.34782,0.98534 -0.69554,1.21719 -0.23189,0.11592 -0.57966,0.17388 -1.0433,0.17388 l -33.38586,0 c -1.3911,0 -2.78217,0 -4.17324,0 -1.27516,0.11593 -2.20254,-0.11592 -2.78215,-0.69554 -0.69555,-0.57961 -1.04332,-1.44903 -1.04331,-2.60827 -1e-5,-1.15922 -1e-5,-2.26049 0,-3.3038 l 0,-109.89513 c -1e-5,-1.15911 0.058,-1.91261 0.17388,-2.2605 0.11592,-0.34765 0.46369,-0.8693 1.04331,-1.56496 0.57961,-0.69542 1.15922,-1.10115 1.73885,-1.21719 0.5796,-0.11581 1.3331,-0.17377 2.2605,-0.17389 l 35.99413,0 c 1.04326,1.2e-4 1.62288,0.52178 1.73885,1.56496 0.23179,1.04343 0.34772,3.24597 0.34777,6.60762 -5e-5,3.9415 -0.11598,6.43384 -0.34777,7.47704 -0.11597,0.92749 -0.75355,1.39119 -1.91273,1.39108 l -17.38847,0 c -0.69557,1.1e-4 -1.50703,0.0581 -2.43439,0.17389 -0.81149,0.11602 -1.33314,0.34787 -1.56496,0.69553 -0.46372,0.57972 -0.75353,0.98545 -0.86942,1.2172 -3e-5,0.23195 -3e-5,0.92748 0,2.08661 l 0,22.95278 c -3e-5,0.81154 -3e-5,1.623 0,2.43439 -3e-5,0.81153 0.34774,1.50707 1.0433,2.08661 0.57959,0.46377 1.15921,0.69561 1.73885,0.69554 0.69551,7e-5 1.39105,7e-5 2.08662,0 l 8.34646,0 c 1.04327,7e-5 1.68085,0.52173 1.91273,1.56496 0.23181,0.92746 0.34773,3.30388 0.34777,7.12928 -4e-5,3.7096 -0.11596,6.02806 -0.34777,6.95538 -0.11596,0.92745 -0.75354,1.39114 -1.91273,1.39108 l -7.82481,0 c -0.92741,6e-5 -1.79684,0.058 -2.60827,0.17389 -0.81149,5e-5 -1.3911,0.11597 -1.73885,0.34777 -0.81148,0.57967 -1.21721,1.2752 -1.21719,2.08661 -2e-5,0.81152 -2e-5,1.79686 0,2.95604 l 0,25.90882 c -2e-5,1.15925 -2e-5,2.43441 0,3.82546 0.1159,1.27518 0.40571,2.02868 0.86943,2.26051 0.46366,0.23186 1.21716,0.40574 2.2605,0.52165 1.04327,0.11594 2.02862,0.1739 2.95604,0.17388 l 16.51904,0 c 1.04326,2e-5 1.68084,0.46371 1.91273,1.39108 0.2318,0.81148 0.34772,3.12994 0.34777,6.95539"
         style="font-family:GarageGothic-Bold;-inkscape-font-specification:GarageGothic-Bold;letter-spacing:28.41836166px;fill:#ffffff"
         id="path3165" />
      <path
         d="m 278.85501,636.51469 c -5e-5,1.9707 -0.058,3.53566 -0.17388,4.69489 -5e-5,1.15923 -0.058,2.02865 -0.17389,2.60827 -0.11597,0.57961 -0.34782,0.98534 -0.69554,1.21719 -0.23189,0.11592 -0.57966,0.17388 -1.0433,0.17388 l -33.38587,0 c -1.39109,0 -2.78216,0 -4.17323,0 -1.27516,0.11593 -2.20255,-0.11592 -2.78215,-0.69554 -0.69555,-0.57961 -1.04332,-1.44903 -1.04331,-2.60827 -1e-5,-1.15922 -1e-5,-2.26049 0,-3.3038 l 0,-109.89513 c -1e-5,-1.15911 0.058,-1.91261 0.17388,-2.2605 0.11592,-0.34765 0.46369,-0.8693 1.04331,-1.56496 0.57961,-0.69542 1.15922,-1.10115 1.73885,-1.21719 0.5796,-0.11581 1.3331,-0.17377 2.2605,-0.17389 l 35.99413,0 c 1.04326,1.2e-4 1.62287,0.52178 1.73885,1.56496 0.23179,1.04343 0.34772,3.24597 0.34777,6.60762 -5e-5,3.9415 -0.11598,6.43384 -0.34777,7.47704 -0.11598,0.92749 -0.75355,1.39119 -1.91273,1.39108 l -17.38847,0 c -0.69557,1.1e-4 -1.50703,0.0581 -2.43439,0.17389 -0.81149,0.11602 -1.33314,0.34787 -1.56496,0.69553 -0.46372,0.57972 -0.75353,0.98545 -0.86942,1.2172 -3e-5,0.23195 -3e-5,0.92748 0,2.08661 l 0,22.95278 c -3e-5,0.81154 -3e-5,1.623 0,2.43439 -3e-5,0.81153 0.34774,1.50707 1.0433,2.08661 0.57959,0.46377 1.15921,0.69561 1.73885,0.69554 0.69551,7e-5 1.39105,7e-5 2.08662,0 l 8.34646,0 c 1.04327,7e-5 1.68085,0.52173 1.91273,1.56496 0.23181,0.92746 0.34773,3.30388 0.34777,7.12928 -4e-5,3.7096 -0.11596,6.02806 -0.34777,6.95538 -0.11596,0.92745 -0.75354,1.39114 -1.91273,1.39108 l -7.82481,0 c -0.92741,6e-5 -1.79684,0.058 -2.60827,0.17389 -0.81149,5e-5 -1.3911,0.11597 -1.73885,0.34777 -0.81148,0.57967 -1.21721,1.2752 -1.21719,2.08661 -2e-5,0.81152 -2e-5,1.79686 0,2.95604 l 0,25.90882 c -2e-5,1.15925 -2e-5,2.43441 0,3.82546 0.1159,1.27518 0.40571,2.02868 0.86942,2.26051 0.46367,0.23186 1.21717,0.40574 2.26051,0.52165 1.04327,0.11594 2.02862,0.1739 2.95603,0.17388 l 16.51905,0 c 1.04326,2e-5 1.68084,0.46371 1.91273,1.39108 0.2318,0.81148 0.34772,3.12994 0.34777,6.95539"
         style="font-family:GarageGothic-Bold;-inkscape-font-specification:GarageGothic-Bold;letter-spacing:28.41836166px;fill:#ffffff"
         id="path3167" />
      <path
         d="m 372.58338,643.12231 c -6e-5,0.23185 -0.058,0.52165 -0.17388,0.86942 -7e-5,0.23185 -0.28987,0.46369 -0.86943,0.69554 -0.57967,0.11592 -1.50706,0.23185 -2.78215,0.34777 -1.27521,0.11592 -3.07202,0.17388 -5.39043,0.17388 -3.94143,0 -6.5497,-0.058 -7.82481,-0.17388 -1.15927,-0.11592 -1.91277,-0.86942 -2.2605,-2.2605 -1.15927,-4.63692 -2.26054,-8.92607 -3.30381,-12.86747 -0.92742,-3.94137 -1.91277,-7.82479 -2.95604,-11.65027 -0.92742,-3.82544 -1.8548,-7.6509 -2.78215,-11.47639 -0.92742,-3.94135 -1.97073,-8.28846 -3.12993,-13.04135 -0.23188,-0.81141 -0.63761,-1.10122 -1.21719,-0.86943 -0.57965,0.11598 -1.39111,1.33317 -2.43439,3.65158 -0.92741,2.20259 -1.3911,4.63697 -1.39107,7.30316 l 0,38.25463 c -3e-5,1.39108 -0.92741,2.2605 -2.78216,2.60827 -1.85479,0.34777 -4.05733,0.52165 -6.60762,0.52165 -2.31847,0 -4.46305,-0.11592 -6.43373,-0.34777 -1.85478,-0.34776 -2.78216,-1.15923 -2.78216,-2.43438 l 0,-116.32886 c 0,-0.57949 0.2898,-0.98523 0.86943,-1.21719 0.5796,-0.34765 1.27514,-0.5795 2.08661,-0.69554 0.92738,-0.23173 1.91272,-0.34765 2.95604,-0.34777 1.15922,-0.1158 2.20253,-0.17376 3.12993,-0.17388 1.04329,1.2e-4 2.0866,1.2e-4 3.12992,0 1.15921,1.2e-4 2.20252,0.11604 3.12993,0.34776 0.92736,0.11605 1.68086,0.3479 2.2605,0.69554 0.69551,0.34789 1.04328,0.86955 1.04331,1.56497 l 0,42.08009 c -3e-5,0.57969 -3e-5,1.39115 0,2.43439 -3e-5,0.92745 0.28978,1.27522 0.86942,1.0433 0.23182,-0.11585 0.4057,-0.52158 0.52165,-1.21719 0.23182,-0.81138 0.46367,-1.50692 0.69554,-2.08661 1.1592,-4.17316 2.20251,-7.94065 3.12993,-11.30251 1.04327,-3.36168 1.97066,-6.66548 2.78215,-9.91143 0.92735,-3.24574 1.85474,-6.54955 2.78216,-9.91142 0.92734,-3.47759 2.02861,-7.30305 3.30381,-11.47639 0.2318,-0.92727 0.86938,-1.44892 1.91273,-1.56497 1.15919,-0.1158 3.76745,-0.17376 7.82481,-0.17388 4.2891,1.2e-4 7.01329,0.17401 8.17258,0.52165 1.27509,0.23197 1.79675,0.6377 1.56496,1.2172 -1.50706,4.63704 -2.84017,8.69434 -3.99935,12.17192 -1.04336,3.4778 -2.08667,6.83957 -3.12992,10.08532 -1.04336,3.13001 -2.14463,6.37586 -3.30381,9.73754 -1.04336,3.36185 -2.31851,7.24527 -3.82546,11.65027 -0.81151,2.20262 -1.21724,4.11535 -1.2172,5.7382 -4e-5,0.81153 0.0579,1.68095 0.17389,2.60827 0.2318,0.81153 0.57957,2.02872 1.04331,3.65158 1.7388,5.91213 3.2458,11.24459 4.521,15.99739 1.39102,4.75289 2.72414,9.44777 3.99935,14.08466 1.2751,4.52103 2.60821,9.33183 3.99934,14.43243 1.39102,4.98471 2.95598,10.66493 4.69489,17.0407"
         style="font-family:GarageGothic-Bold;-inkscape-font-specification:GarageGothic-Bold;letter-spacing:28.41836166px;fill:#ffffff"
         id="path3169" />
      <path
         d="m 521.9811,620.86507 c -5e-5,7.30317 -2.08667,13.21524 -6.25985,17.73624 -4.05735,4.40508 -10.14331,6.60761 -18.25789,6.60761 -3.94141,0 -7.47706,-0.63757 -10.60696,-1.91273 -3.12995,-1.27515 -5.79618,-3.01399 -7.9987,-5.21654 -2.08663,-2.31845 -3.70955,-4.92672 -4.86877,-7.82481 -1.15924,-2.89806 -1.73885,-6.02798 -1.73885,-9.38977 l 0,-72.85769 c 0,-3.36167 0.57961,-6.49159 1.73885,-9.38977 1.15922,-3.01389 2.78214,-5.62216 4.86877,-7.82481 2.20252,-2.31835 4.86875,-4.11515 7.9987,-5.39043 3.1299,-1.27503 6.66555,-1.91261 10.60696,-1.91273 4.05728,1.2e-4 7.59293,0.69566 10.60697,2.08662 3.12988,1.39119 5.68018,3.24596 7.65092,5.56431 2.08657,2.20265 3.65153,4.81092 4.69489,7.82481 1.04325,2.89818 1.56491,5.91218 1.56496,9.042 l 0,9.38978 c -5e-5,0.92747 -0.57967,1.56504 -1.73884,1.91273 -1.04337,0.23193 -3.59367,0.34785 -7.65093,0.34777 -2.89812,8e-5 -5.10066,8e-5 -6.60762,0 -1.39111,-0.11584 -2.08665,-0.75342 -2.08662,-1.91274 l 0,-9.042 c -3e-5,-0.57952 -0.11596,-1.27506 -0.34776,-2.08662 -0.23189,-0.92728 -0.63762,-1.73874 -1.2172,-2.43438 -0.46373,-0.81136 -1.1013,-1.44894 -1.91273,-1.91273 -0.81149,-0.57951 -1.79684,-0.86932 -2.95604,-0.86943 -2.66626,1.1e-4 -4.46307,1.10138 -5.39042,3.30381 -0.81149,2.08672 -1.21722,4.28925 -1.2172,6.60762 l 0,65.55453 c -2e-5,2.43441 0.40571,4.69491 1.2172,6.7815 0.92735,2.08664 2.72416,3.12994 5.39042,3.12993 2.55028,10e-6 4.23116,-0.81145 5.04266,-2.43439 0.92735,-1.6229 1.39104,-3.1299 1.39107,-4.521 l 0,-9.04201 c -3e-5,-1.27511 0.57958,-1.97065 1.73885,-2.08661 1.15919,-0.11589 3.65154,-0.17385 7.47704,-0.17389 3.70949,4e-5 6.08591,0.17393 7.12928,0.52166 1.15917,0.23188 1.73879,1.15926 1.73884,2.78215 l 0,9.04201 0,0"
         style="font-family:GarageGothic-Bold;-inkscape-font-specification:GarageGothic-Bold;letter-spacing:28.41836166px;fill:#ffffff"
         id="path3171" />
      <path
         d="m 610.36252,620.16953 c -6e-5,7.30317 -2.14463,13.33117 -6.43373,18.08401 -4.17328,4.63692 -10.49109,6.95538 -18.95344,6.95538 -4.05733,0 -7.65094,-0.63757 -10.78085,-1.91273 -3.01401,-1.27515 -5.62228,-3.01399 -7.82481,-5.21654 -2.20255,-2.31845 -3.88343,-4.98468 -5.04265,-7.99869 -1.04332,-3.01399 -1.56497,-6.31779 -1.56497,-9.91143 l 0,-71.81438 c 0,-3.82536 0.63758,-7.24509 1.91274,-10.2592 1.27514,-3.01389 3.01399,-5.62215 5.21654,-7.82481 2.31844,-2.20242 4.98467,-3.8833 7.99869,-5.04265 3.1299,-1.15911 6.49167,-1.73873 10.08531,-1.73885 7.53497,1.2e-4 13.62093,2.26062 18.2579,6.7815 4.75279,4.40519 7.12921,10.43319 7.12927,18.08401 l 0,71.81438 0,0 m -18.77955,-68.33668 c -3e-5,-2.43429 -0.46373,-4.75275 -1.39107,-6.95539 -0.92742,-2.31836 -2.66627,-3.47759 -5.21655,-3.4777 -2.66626,1.1e-4 -4.46306,1.15934 -5.39042,3.4777 -0.81149,2.20264 -1.21722,4.5211 -1.21719,6.95539 l 0,64.51121 c -3e-5,1.27519 -3e-5,2.55034 0,3.82547 0.1159,1.15925 0.4057,2.26052 0.86942,3.30381 0.46367,0.9274 1.10124,1.73886 1.91273,2.43438 0.92736,0.57964 2.20251,0.86944 3.82546,0.86943 1.50697,10e-6 2.6662,-0.28979 3.4777,-0.86943 0.92735,-0.69552 1.62289,-1.50698 2.08661,-2.43438 0.46366,-1.04329 0.75347,-2.14456 0.86943,-3.30381 0.11588,-1.27513 0.17385,-2.55028 0.17388,-3.82547 l 0,-64.51121"
         style="font-family:GarageGothic-Bold;-inkscape-font-specification:GarageGothic-Bold;letter-spacing:28.41836166px;fill:#ffffff"
         id="path3173" />
      <path
         d="m 704.93041,640.16627 c -6e-5,1.15923 -0.058,2.08662 -0.17389,2.78215 -6e-5,0.57962 -0.28986,1.04331 -0.86942,1.39108 -0.46375,0.34777 -1.33317,0.57962 -2.60827,0.69554 -1.15929,0.11592 -2.84017,0.17388 -5.04265,0.17388 -2.31852,0 -4.05736,-0.23184 -5.21655,-0.69554 -1.04335,-0.46369 -1.85481,-1.7968 -2.43438,-3.99934 -1.39112,-4.98469 -2.66627,-9.44772 -3.82546,-13.38912 -1.04335,-3.94137 -2.08666,-7.76683 -3.12993,-11.47639 -0.92742,-3.82543 -1.97073,-7.82478 -3.12992,-11.99805 -1.04334,-4.17318 -2.3185,-8.98399 -3.82547,-14.43243 -0.23187,-0.92732 -0.52168,-1.97063 -0.86942,-3.12992 -0.23187,-1.2751 -0.52168,-2.43433 -0.86942,-3.47769 -0.3478,-1.04325 -0.69557,-1.91267 -1.04331,-2.60828 -0.23187,-0.69547 -0.52168,-1.04324 -0.86942,-1.0433 -0.57965,6e-5 -0.92742,0.6956 -1.04331,2.08661 -0.11595,1.39114 -0.17391,2.6663 -0.17389,3.82547 l 0,57.20806 c -2e-5,0.69554 -0.11595,1.27516 -0.34777,1.73885 -0.11594,0.34777 -0.46371,0.63757 -1.04331,0.86942 -0.57963,0.23185 -1.56498,0.40573 -2.95603,0.52165 -1.27518,0 -3.01402,0 -5.21655,0 -2.20255,0 -3.88343,0 -5.04265,0 -1.15924,-0.11592 -2.02866,-0.2898 -2.60827,-0.52165 -0.4637,-0.23185 -0.75351,-0.52165 -0.86943,-0.86942 -0.11593,-0.34777 -0.17389,-0.86943 -0.17388,-1.56497 l 0,-116.32885 c -10e-6,-1.15911 0.34776,-1.85465 1.04331,-2.08662 0.81145,-0.23172 3.12991,-0.34765 6.95539,-0.34777 3.70952,1.2e-4 6.08594,0.34789 7.12927,1.04331 1.15921,0.57973 2.02863,2.08673 2.60827,4.521 1.97066,7.18734 4.11524,15.24399 6.43373,24.16997 2.43435,8.81024 4.98466,17.85224 7.65093,27.12601 0.23181,0.92745 0.46365,1.9128 0.69554,2.95604 0.34773,1.04337 0.81142,1.56503 1.39107,1.56497 0.57958,6e-5 0.92735,-0.63752 1.04331,-1.91274 0.11588,-1.27509 0.17385,-2.37635 0.17389,-3.3038 l 0,-53.03483 c -4e-5,-0.69542 0.0579,-1.21708 0.17388,-1.56497 0.11588,-0.46357 0.46365,-0.81134 1.04331,-1.04331 0.69549,-0.23172 1.62288,-0.34764 2.78216,-0.34776 1.2751,-0.11581 3.01395,-0.17377 5.21654,-0.17389 2.20248,1.2e-4 3.88337,0.0581 5.04265,0.17389 1.2751,1.2e-4 2.20248,0.11604 2.78216,0.34776 0.57955,0.11605 0.92732,0.40586 1.0433,0.86943 0.11587,0.34789 0.17383,0.86954 0.17389,1.56496 l 0,113.72059 0,0"
         style="font-family:GarageGothic-Bold;-inkscape-font-specification:GarageGothic-Bold;letter-spacing:28.41836166px;fill:#ffffff"
         id="path3175" />
      <path
         d="m 793.12438,531.66222 c -5e-5,1.97081 -0.058,3.59373 -0.17389,4.86877 -5e-5,1.15934 -0.058,2.02876 -0.17388,2.60827 -0.11598,0.57972 -0.34782,0.98545 -0.69554,1.2172 -0.2319,0.11602 -0.57967,0.17399 -1.04331,0.17388 l -7.47704,0 c -0.92743,1.1e-4 -1.91277,1.1e-4 -2.95604,0 -0.92742,1.1e-4 -1.62296,0.11603 -2.08661,0.34777 -0.8115,0.57972 -1.21723,1.5071 -1.2172,2.78215 -3e-5,1.27526 -3e-5,2.49245 0,3.65158 l 0,96.15824 c -3e-5,0.81146 -0.69557,1.33311 -2.08661,1.56496 -1.27519,0.11592 -3.94142,0.17388 -7.9987,0.17388 -3.70956,0 -6.14395,-0.058 -7.30316,-0.17388 -1.04332,-0.11592 -1.56498,-0.63758 -1.56496,-1.56496 l 0,-96.15824 c -2e-5,-1.15913 -2e-5,-2.37632 0,-3.65158 -2e-5,-1.27505 -0.40575,-2.20243 -1.21719,-2.78215 -0.46371,-0.23174 -1.21721,-0.34766 -2.2605,-0.34777 -0.9274,1.1e-4 -1.85479,1.1e-4 -2.78216,0 l -6.43373,0 c -1.27516,1.1e-4 -2.14458,-0.46359 -2.60827,-1.39108 -0.34777,-1.0432 -0.52166,-3.41962 -0.52165,-7.12927 -1e-5,-3.70942 0.11592,-6.02788 0.34776,-6.95539 0.34777,-1.04318 1.04331,-1.56484 2.08662,-1.56496 l 45.90556,0 c 1.04325,1.2e-4 1.68083,0.52178 1.91273,1.56496 0.23179,1.04343 0.34772,3.24597 0.34777,6.60762"
         style="font-family:GarageGothic-Bold;-inkscape-font-specification:GarageGothic-Bold;letter-spacing:28.41836166px;fill:#ffffff"
         id="path3177" />
      <path
         d="m 874.45801,636.51469 c -5e-5,1.9707 -0.058,3.53566 -0.17389,4.69489 -5e-5,1.15923 -0.058,2.02865 -0.17388,2.60827 -0.11597,0.57961 -0.34782,0.98534 -0.69554,1.21719 -0.2319,0.11592 -0.57966,0.17388 -1.04331,0.17388 l -33.38586,0 c -1.39109,0 -2.78217,0 -4.17323,0 -1.27516,0.11593 -2.20255,-0.11592 -2.78216,-0.69554 -0.69554,-0.57961 -1.04331,-1.44903 -1.0433,-2.60827 -10e-6,-1.15922 -10e-6,-2.26049 0,-3.3038 l 0,-109.89513 c -10e-6,-1.15911 0.058,-1.91261 0.17388,-2.2605 0.11592,-0.34765 0.46369,-0.8693 1.04331,-1.56496 0.57961,-0.69542 1.15922,-1.10115 1.73885,-1.21719 0.5796,-0.11581 1.3331,-0.17377 2.2605,-0.17389 l 35.99413,0 c 1.04326,1.2e-4 1.62287,0.52178 1.73884,1.56496 0.2318,1.04343 0.34772,3.24597 0.34777,6.60762 -5e-5,3.9415 -0.11597,6.43384 -0.34777,7.47704 -0.11597,0.92749 -0.75355,1.39119 -1.91273,1.39108 l -17.38847,0 c -0.69556,1.1e-4 -1.50703,0.0581 -2.43438,0.17389 -0.81149,0.11602 -1.33314,0.34787 -1.56496,0.69553 -0.46372,0.57972 -0.75353,0.98545 -0.86943,1.2172 -2e-5,0.23195 -2e-5,0.92748 0,2.08661 l 0,22.95278 c -2e-5,0.81154 -2e-5,1.623 0,2.43439 -2e-5,0.81153 0.34775,1.50707 1.04331,2.08661 0.57959,0.46377 1.1592,0.69561 1.73885,0.69554 0.69551,7e-5 1.39105,7e-5 2.08661,0 l 8.34647,0 c 1.04327,7e-5 1.68084,0.52173 1.91273,1.56496 0.23181,0.92746 0.34773,3.30388 0.34777,7.12928 -4e-5,3.7096 -0.11596,6.02806 -0.34777,6.95538 -0.11596,0.92745 -0.75354,1.39114 -1.91273,1.39108 l -7.82481,0 c -0.92742,6e-5 -1.79684,0.058 -2.60827,0.17389 -0.81149,5e-5 -1.39111,0.11597 -1.73885,0.34777 -0.81149,0.57967 -1.21722,1.2752 -1.21719,2.08661 -3e-5,0.81152 -3e-5,1.79686 0,2.95604 l 0,25.90882 c -3e-5,1.15925 -3e-5,2.43441 0,3.82546 0.1159,1.27518 0.4057,2.02868 0.86942,2.26051 0.46367,0.23186 1.21717,0.40574 2.2605,0.52165 1.04328,0.11594 2.02863,0.1739 2.95604,0.17388 l 16.51905,0 c 1.04326,2e-5 1.68083,0.46371 1.91273,1.39108 0.23179,0.81148 0.34772,3.12994 0.34777,6.95539"
         style="font-family:GarageGothic-Bold;-inkscape-font-specification:GarageGothic-Bold;letter-spacing:28.41836166px;fill:#ffffff"
         id="path3179" />
      <path
         d="m 966.4475,640.16627 c -6e-5,1.15923 -0.058,2.08662 -0.17389,2.78215 -6e-5,0.57962 -0.28986,1.04331 -0.86942,1.39108 -0.46375,0.34777 -1.33317,0.57962 -2.60827,0.69554 -1.15929,0.11592 -2.84017,0.17388 -5.04265,0.17388 -2.31852,0 -4.05736,-0.23184 -5.21655,-0.69554 -1.04335,-0.46369 -1.85481,-1.7968 -2.43438,-3.99934 -1.39112,-4.98469 -2.66627,-9.44772 -3.82546,-13.38912 -1.04335,-3.94137 -2.08666,-7.76683 -3.12993,-11.47639 -0.92742,-3.82543 -1.97073,-7.82478 -3.12992,-11.99805 -1.04334,-4.17318 -2.3185,-8.98399 -3.82547,-14.43243 -0.23187,-0.92732 -0.52168,-1.97063 -0.86942,-3.12992 -0.23188,-1.2751 -0.52168,-2.43433 -0.86942,-3.47769 -0.3478,-1.04325 -0.69557,-1.91267 -1.04331,-2.60828 -0.23187,-0.69547 -0.52168,-1.04324 -0.86942,-1.0433 -0.57965,6e-5 -0.92742,0.6956 -1.04331,2.08661 -0.11595,1.39114 -0.17391,2.6663 -0.17389,3.82547 l 0,57.20806 c -2e-5,0.69554 -0.11595,1.27516 -0.34777,1.73885 -0.11594,0.34777 -0.46371,0.63757 -1.04331,0.86942 -0.57963,0.23185 -1.56498,0.40573 -2.95603,0.52165 -1.27518,0 -3.01402,0 -5.21655,0 -2.20255,0 -3.88343,0 -5.04265,0 -1.15924,-0.11592 -2.02866,-0.2898 -2.60827,-0.52165 -0.4637,-0.23185 -0.75351,-0.52165 -0.86943,-0.86942 -0.11593,-0.34777 -0.17389,-0.86943 -0.17388,-1.56497 l 0,-116.32885 c -10e-6,-1.15911 0.34776,-1.85465 1.04331,-2.08662 0.81145,-0.23172 3.12991,-0.34765 6.95539,-0.34777 3.70952,1.2e-4 6.08594,0.34789 7.12927,1.04331 1.15921,0.57973 2.02863,2.08673 2.60827,4.521 1.97066,7.18734 4.11524,15.24399 6.43373,24.16997 2.43435,8.81024 4.98466,17.85224 7.65093,27.12601 0.23181,0.92745 0.46365,1.9128 0.69554,2.95604 0.34773,1.04337 0.81142,1.56503 1.39107,1.56497 0.57958,6e-5 0.92735,-0.63752 1.04331,-1.91274 0.11588,-1.27509 0.17385,-2.37635 0.17389,-3.3038 l 0,-53.03483 c -4e-5,-0.69542 0.0579,-1.21708 0.17388,-1.56497 0.11588,-0.46357 0.46365,-0.81134 1.04331,-1.04331 0.69549,-0.23172 1.62288,-0.34764 2.78216,-0.34776 1.2751,-0.11581 3.01395,-0.17377 5.21654,-0.17389 2.20248,1.2e-4 3.88337,0.0581 5.04265,0.17389 1.2751,1.2e-4 2.20248,0.11604 2.78216,0.34776 0.57955,0.11605 0.92732,0.40586 1.0433,0.86943 0.11587,0.34789 0.17383,0.86954 0.17389,1.56496 l 0,113.72059 0,0"
         style="font-family:GarageGothic-Bold;-inkscape-font-specification:GarageGothic-Bold;letter-spacing:28.41836166px;fill:#ffffff"
         id="path3181" />
      <path
         d="m 1054.6415,531.66222 c -10e-5,1.97081 -0.058,3.59373 -0.1739,4.86877 -10e-5,1.15934 -0.058,2.02876 -0.1739,2.60827 -0.116,0.57972 -0.3478,0.98545 -0.6955,1.2172 -0.2319,0.11602 -0.5797,0.17399 -1.0433,0.17388 l -7.4771,0 c -0.9274,1.1e-4 -1.9128,1.1e-4 -2.956,0 -0.9275,1.1e-4 -1.623,0.11603 -2.0866,0.34777 -0.8115,0.57972 -1.2173,1.5071 -1.2172,2.78215 -10e-5,1.27526 -10e-5,2.49245 0,3.65158 l 0,96.15824 c -10e-5,0.81146 -0.6956,1.33311 -2.0867,1.56496 -1.2751,0.11592 -3.9414,0.17388 -7.9986,0.17388 -3.7096,0 -6.144,-0.058 -7.3032,-0.17388 -1.0433,-0.11592 -1.565,-0.63758 -1.565,-1.56496 l 0,-96.15824 c 0,-1.15913 0,-2.37632 0,-3.65158 0,-1.27505 -0.4057,-2.20243 -1.2172,-2.78215 -0.4637,-0.23174 -1.2172,-0.34766 -2.2605,-0.34777 -0.9274,1.1e-4 -1.8547,1.1e-4 -2.7821,0 l -6.4338,0 c -1.2751,1.1e-4 -2.1445,-0.46359 -2.6082,-1.39108 -0.3478,-1.0432 -0.5217,-3.41962 -0.5217,-7.12927 0,-3.70942 0.1159,-6.02788 0.3478,-6.95539 0.3478,-1.04318 1.0433,-1.56484 2.0866,-1.56496 l 45.9056,0 c 1.0432,1.2e-4 1.6808,0.52178 1.9127,1.56496 0.2318,1.04343 0.3477,3.24597 0.3478,6.60762"
         style="font-family:GarageGothic-Bold;-inkscape-font-specification:GarageGothic-Bold;letter-spacing:28.41836166px;fill:#ffffff"
         id="path3183" />
    </g>
  </g>
</svg>
